# Created by Metasequoia

mtllib sea.mtl

v -200.000000 0.000000 -200.000000
v -150.000000 0.000000 -200.000000
v -100.000000 0.000000 -200.000000
v -50.000000 0.000000 -200.000000
v 0.000000 0.000000 -200.000000
v 50.000000 0.000000 -200.000000
v 100.000000 0.000000 -200.000000
v 150.000000 0.000000 -200.000000
v 200.000000 0.000000 -200.000000
v -200.000000 0.000000 -150.000000
v -150.000000 0.000000 -150.000000
v -100.000000 0.000000 -150.000000
v -50.000000 0.000000 -150.000000
v 0.000000 0.000000 -150.000000
v 50.000000 0.000000 -150.000000
v 100.000000 0.000000 -150.000000
v 150.000000 0.000000 -150.000000
v 200.000000 0.000000 -150.000000
v -200.000000 0.000000 -100.000000
v -150.000000 0.000000 -100.000000
v -100.000000 0.000000 -100.000000
v -50.000000 0.000000 -100.000000
v 0.000000 0.000000 -100.000000
v 50.000000 0.000000 -100.000000
v 100.000000 0.000000 -100.000000
v 150.000000 0.000000 -100.000000
v 200.000000 0.000000 -100.000000
v -200.000000 0.000000 -50.000000
v -150.000000 0.000000 -50.000000
v -100.000000 0.000000 -50.000000
v -50.000000 0.000000 -50.000000
v 0.000000 0.000000 -50.000000
v 50.000000 0.000000 -50.000000
v 100.000000 0.000000 -50.000000
v 150.000000 0.000000 -50.000000
v 200.000000 0.000000 -50.000000
v -200.000000 0.000000 0.000000
v -150.000000 0.000000 0.000000
v -100.000000 0.000000 0.000000
v -50.000000 0.000000 0.000000
v 0.000000 0.000000 0.000000
v 50.000000 0.000000 0.000000
v 100.000000 0.000000 0.000000
v 150.000000 0.000000 0.000000
v 200.000000 0.000000 0.000000
v -200.000000 0.000000 50.000000
v -150.000000 0.000000 50.000000
v -100.000000 0.000000 50.000000
v -50.000000 0.000000 50.000000
v 0.000000 0.000000 50.000000
v 50.000000 0.000000 50.000000
v 100.000000 0.000000 50.000000
v 150.000000 0.000000 50.000000
v 200.000000 0.000000 50.000000
v -200.000000 0.000000 100.000000
v -150.000000 0.000000 100.000000
v -100.000000 0.000000 100.000000
v -50.000000 0.000000 100.000000
v 0.000000 0.000000 100.000000
v 50.000000 0.000000 100.000000
v 100.000000 0.000000 100.000000
v 150.000000 0.000000 100.000000
v 200.000000 0.000000 100.000000
v -200.000000 0.000000 150.000000
v -150.000000 0.000000 150.000000
v -100.000000 0.000000 150.000000
v -50.000000 0.000000 150.000000
v 0.000000 0.000000 150.000000
v 50.000000 0.000000 150.000000
v 100.000000 0.000000 150.000000
v 150.000000 0.000000 150.000000
v 200.000000 0.000000 150.000000
v -200.000000 0.000000 200.000000
v -150.000000 0.000000 200.000000
v -100.000000 0.000000 200.000000
v -50.000000 0.000000 200.000000
v 0.000000 0.000000 200.000000
v 50.000000 0.000000 200.000000
v 100.000000 0.000000 200.000000
v 150.000000 0.000000 200.000000
v 200.000000 0.000000 200.000000
# 81 vertices

vt 0.00000 0.00000
vt 0.12500 0.00000
vt 0.12500 0.12500
vt 0.00000 0.12500
vt 0.25000 0.00000
vt 0.25000 0.12500
vt 0.37500 0.00000
vt 0.37500 0.12500
vt 0.50000 0.00000
vt 0.50000 0.12500
vt 0.62500 0.00000
vt 0.62500 0.12500
vt 0.75000 0.00000
vt 0.75000 0.12500
vt 0.87500 0.00000
vt 0.87500 0.12500
vt 1.00000 0.00000
vt 1.00000 0.12500
vt 0.12500 0.25000
vt 0.00000 0.25000
vt 0.25000 0.25000
vt 0.37500 0.25000
vt 0.50000 0.25000
vt 0.62500 0.25000
vt 0.75000 0.25000
vt 0.87500 0.25000
vt 1.00000 0.25000
vt 0.12500 0.37500
vt 0.00000 0.37500
vt 0.25000 0.37500
vt 0.37500 0.37500
vt 0.50000 0.37500
vt 0.62500 0.37500
vt 0.75000 0.37500
vt 0.87500 0.37500
vt 1.00000 0.37500
vt 0.12500 0.50000
vt 0.00000 0.50000
vt 0.25000 0.50000
vt 0.37500 0.50000
vt 0.50000 0.50000
vt 0.62500 0.50000
vt 0.75000 0.50000
vt 0.87500 0.50000
vt 1.00000 0.50000
vt 0.12500 0.62500
vt 0.00000 0.62500
vt 0.25000 0.62500
vt 0.37500 0.62500
vt 0.50000 0.62500
vt 0.62500 0.62500
vt 0.75000 0.62500
vt 0.87500 0.62500
vt 1.00000 0.62500
vt 0.12500 0.75000
vt 0.00000 0.75000
vt 0.25000 0.75000
vt 0.37500 0.75000
vt 0.50000 0.75000
vt 0.62500 0.75000
vt 0.75000 0.75000
vt 0.87500 0.75000
vt 1.00000 0.75000
vt 0.12500 0.87500
vt 0.00000 0.87500
vt 0.25000 0.87500
vt 0.37500 0.87500
vt 0.50000 0.87500
vt 0.62500 0.87500
vt 0.75000 0.87500
vt 0.87500 0.87500
vt 1.00000 0.87500
vt 0.12500 1.00000
vt 0.00000 1.00000
vt 0.25000 1.00000
vt 0.37500 1.00000
vt 0.50000 1.00000
vt 0.62500 1.00000
vt 0.75000 1.00000
vt 0.87500 1.00000
vt 1.00000 1.00000
# 81 texture vertices

vn 0.00000 1.00000 0.00000
# 1 normal vertices

usemtl mat2
f 11/3/1 2/2/1 1/1/1
f 10/4/1 11/3/1 1/1/1
f 12/6/1 3/5/1 2/2/1
f 11/3/1 12/6/1 2/2/1
f 13/8/1 4/7/1 3/5/1
f 12/6/1 13/8/1 3/5/1
f 14/10/1 5/9/1 4/7/1
f 13/8/1 14/10/1 4/7/1
f 15/12/1 6/11/1 5/9/1
f 14/10/1 15/12/1 5/9/1
f 16/14/1 7/13/1 6/11/1
f 15/12/1 16/14/1 6/11/1
f 17/16/1 8/15/1 7/13/1
f 16/14/1 17/16/1 7/13/1
f 18/18/1 9/17/1 8/15/1
f 17/16/1 18/18/1 8/15/1
f 20/19/1 11/3/1 10/4/1
f 19/20/1 20/19/1 10/4/1
f 21/21/1 12/6/1 11/3/1
f 20/19/1 21/21/1 11/3/1
f 22/22/1 13/8/1 12/6/1
f 21/21/1 22/22/1 12/6/1
f 23/23/1 14/10/1 13/8/1
f 22/22/1 23/23/1 13/8/1
f 24/24/1 15/12/1 14/10/1
f 23/23/1 24/24/1 14/10/1
f 25/25/1 16/14/1 15/12/1
f 24/24/1 25/25/1 15/12/1
f 26/26/1 17/16/1 16/14/1
f 25/25/1 26/26/1 16/14/1
f 27/27/1 18/18/1 17/16/1
f 26/26/1 27/27/1 17/16/1
f 29/28/1 20/19/1 19/20/1
f 28/29/1 29/28/1 19/20/1
f 30/30/1 21/21/1 20/19/1
f 29/28/1 30/30/1 20/19/1
f 31/31/1 22/22/1 21/21/1
f 30/30/1 31/31/1 21/21/1
f 32/32/1 23/23/1 22/22/1
f 31/31/1 32/32/1 22/22/1
f 33/33/1 24/24/1 23/23/1
f 32/32/1 33/33/1 23/23/1
f 34/34/1 25/25/1 24/24/1
f 33/33/1 34/34/1 24/24/1
f 35/35/1 26/26/1 25/25/1
f 34/34/1 35/35/1 25/25/1
f 36/36/1 27/27/1 26/26/1
f 35/35/1 36/36/1 26/26/1
f 38/37/1 29/28/1 28/29/1
f 37/38/1 38/37/1 28/29/1
f 39/39/1 30/30/1 29/28/1
f 38/37/1 39/39/1 29/28/1
f 40/40/1 31/31/1 30/30/1
f 39/39/1 40/40/1 30/30/1
f 41/41/1 32/32/1 31/31/1
f 40/40/1 41/41/1 31/31/1
f 42/42/1 33/33/1 32/32/1
f 41/41/1 42/42/1 32/32/1
f 43/43/1 34/34/1 33/33/1
f 42/42/1 43/43/1 33/33/1
f 44/44/1 35/35/1 34/34/1
f 43/43/1 44/44/1 34/34/1
f 45/45/1 36/36/1 35/35/1
f 44/44/1 45/45/1 35/35/1
f 47/46/1 38/37/1 37/38/1
f 46/47/1 47/46/1 37/38/1
f 48/48/1 39/39/1 38/37/1
f 47/46/1 48/48/1 38/37/1
f 49/49/1 40/40/1 39/39/1
f 48/48/1 49/49/1 39/39/1
f 50/50/1 41/41/1 40/40/1
f 49/49/1 50/50/1 40/40/1
f 51/51/1 42/42/1 41/41/1
f 50/50/1 51/51/1 41/41/1
f 52/52/1 43/43/1 42/42/1
f 51/51/1 52/52/1 42/42/1
f 53/53/1 44/44/1 43/43/1
f 52/52/1 53/53/1 43/43/1
f 54/54/1 45/45/1 44/44/1
f 53/53/1 54/54/1 44/44/1
f 56/55/1 47/46/1 46/47/1
f 55/56/1 56/55/1 46/47/1
f 57/57/1 48/48/1 47/46/1
f 56/55/1 57/57/1 47/46/1
f 58/58/1 49/49/1 48/48/1
f 57/57/1 58/58/1 48/48/1
f 59/59/1 50/50/1 49/49/1
f 58/58/1 59/59/1 49/49/1
f 60/60/1 51/51/1 50/50/1
f 59/59/1 60/60/1 50/50/1
f 61/61/1 52/52/1 51/51/1
f 60/60/1 61/61/1 51/51/1
f 62/62/1 53/53/1 52/52/1
f 61/61/1 62/62/1 52/52/1
f 63/63/1 54/54/1 53/53/1
f 62/62/1 63/63/1 53/53/1
f 65/64/1 56/55/1 55/56/1
f 64/65/1 65/64/1 55/56/1
f 66/66/1 57/57/1 56/55/1
f 65/64/1 66/66/1 56/55/1
f 67/67/1 58/58/1 57/57/1
f 66/66/1 67/67/1 57/57/1
f 68/68/1 59/59/1 58/58/1
f 67/67/1 68/68/1 58/58/1
f 69/69/1 60/60/1 59/59/1
f 68/68/1 69/69/1 59/59/1
f 70/70/1 61/61/1 60/60/1
f 69/69/1 70/70/1 60/60/1
f 71/71/1 62/62/1 61/61/1
f 70/70/1 71/71/1 61/61/1
f 72/72/1 63/63/1 62/62/1
f 71/71/1 72/72/1 62/62/1
f 74/73/1 65/64/1 64/65/1
f 73/74/1 74/73/1 64/65/1
f 75/75/1 66/66/1 65/64/1
f 74/73/1 75/75/1 65/64/1
f 76/76/1 67/67/1 66/66/1
f 75/75/1 76/76/1 66/66/1
f 77/77/1 68/68/1 67/67/1
f 76/76/1 77/77/1 67/67/1
f 78/78/1 69/69/1 68/68/1
f 77/77/1 78/78/1 68/68/1
f 79/79/1 70/70/1 69/69/1
f 78/78/1 79/79/1 69/69/1
f 80/80/1 71/71/1 70/70/1
f 79/79/1 80/80/1 70/70/1
f 81/81/1 72/72/1 71/71/1
f 80/80/1 81/81/1 71/71/1
# 128 elements

